<svg xmlns="http://www.w3.org/2000/svg" version="1.1" xmlnsXlink="http://www.w3.org/1999/xlink" xmlnsSvgjs="http://svgjs.dev/svgjs" width="128" height="128" viewBox="0 0 128 128"><g transform="matrix(0.8046875,0,0,0.8046875,12.304926551580486,2.108605102539059)"><svg viewBox="0 0 80 96" data-background-color="#ffffff" preserveAspectRatio="xMidYMid meet" height="153" width="128" xmlns="http://www.w3.org/2000/svg" xmlnsXlink="http://www.w3.org/1999/xlink"><g id="tight-bounds" transform="matrix(1,0,0,1,0.15151335799573928,0.25950000000000273)"><svg viewBox="0 0 79.69697328400852 95.481" height="95.481" width="79.69697328400852"><g><svg viewBox="0 0 79.69697328400852 95.481" height="95.481" width="79.69697328400852"><g><svg viewBox="0 0 79.69697328400852 95.481" height="95.481" width="79.69697328400852"><g id="textblocktransform"><svg viewBox="0 0 79.69697328400852 95.481" height="95.481" width="79.69697328400852" id="textblock"><g><svg viewBox="0 0 79.69697328400852 95.481" height="95.481" width="79.69697328400852"><g><svg viewBox="0 0 79.69697328400852 95.481" height="95.481" width="79.69697328400852"><g><svg xmlns="http://www.w3.org/2000/svg" xmlnsXlink="http://www.w3.org/1999/xlink" version="1.1" x="0" y="0" viewBox="4.869453171541069 1 40.1485574612835 48.1" enable-background="new 0 0 50 50" xmlSpace="preserve" height="95.481" width="79.69697328400852" class="icon-icon-0" data-fill-palette-color="accent" id="icon-0"><g fill="#ac5633" data-fill-palette-color="accent"><path d="M38.8 6.1H11.2C8.1 5.9 5.2 8 4.9 11 4.5 14.6 8.1 17.7 11.5 16 13.1 15.1 13.8 13.6 13.5 12.1 13.2 10.7 12 9.5 10.6 9.5 9.3 9.5 8.2 10.4 8 11.4 7.7 13 9.2 14.2 10.4 13.5 10.7 13.3 10.8 13.2 10.8 13.2S10.7 13.3 10.4 13.4C9.3 13.8 8.4 12.6 8.8 11.6 9 11 9.8 10.6 10.5 10.7 11.3 10.8 11.8 11.6 11.9 12.3 12 13.1 11.5 13.9 10.6 14.3 8.8 15.2 6.8 13.4 7 11.2 7.2 9.2 9.2 7.9 11.2 8H38.7C40.7 7.9 42.7 9.2 42.9 11.2 43.1 13.4 41.1 15.2 39.3 14.3 38.4 13.9 37.9 13.1 38 12.3 38.1 10.4 40.6 10.1 41.1 11.6 41.5 12.6 40.6 13.8 39.5 13.4 39.2 13.3 39.1 13.2 39.1 13.2S39.2 13.4 39.5 13.5C40.7 14.2 42.2 13 41.9 11.4 41.7 10.4 40.7 9.5 39.3 9.5S36.7 10.7 36.4 12.1C36.1 13.6 36.8 15.2 38.4 16 41.8 17.8 45.3 14.6 45 11 44.8 8.1 42.1 5.8 38.8 6.1" fill="#000000" data-fill-palette-color="accent"></path><path d="M16.5 4H33.6C34.4 4 35 3.4 35 2.6V2.4C35 1.6 34.4 1 33.6 1H16.5C15.7 1 15.1 1.6 15.1 2.4V2.6C15.1 3.3 15.7 4 16.5 4" fill="#000000" data-fill-palette-color="accent"></path><path d="M18.9 41.2C19.8 41.2 20.5 40.5 20.5 39.6V11.6C20.5 10.7 19.8 10 18.9 10H18.7C17.8 10 17.1 10.7 17.1 11.6V39.6C17.1 40.5 17.8 41.2 18.7 41.2z" fill="#000000" data-fill-palette-color="accent"></path><path d="M25.1 49C26 49 26.7 48.3 26.7 47.4V11.7C26.7 10.8 26 10.1 25.1 10.1H24.9C24 10.1 23.3 10.8 23.3 11.7V47.5C23.3 48.4 24 49.1 24.9 49.1H25.1z" fill="#000000" data-fill-palette-color="accent"></path><path d="M31.3 41.2C32.2 41.2 32.9 40.5 32.9 39.6V11.6C32.9 10.7 32.2 10 31.3 10H31.1C30.2 10 29.5 10.7 29.5 11.6V39.6C29.5 40.5 30.2 41.2 31.1 41.2z" fill="#000000" data-fill-palette-color="accent"></path></g></svg></g></svg></g></svg></g></svg></g></svg></g><g></g></svg></g><defs></defs></svg><rect width="79.69697328400852" height="95.481" fill="none" stroke="none" visibility="hidden"></rect></g></svg></g></svg>