<svg xmlns="http://www.w3.org/2000/svg" version="1.1" xmlnsXlink="http://www.w3.org/1999/xlink" xmlnsSvgjs="http://svgjs.dev/svgjs" width="2000" height="1945" viewBox="0 0 2000 1945"><g transform="matrix(1,0,0,1,-1.2996097226317715,-3.1370967741935374)"><svg viewBox="0 0 255 248" data-background-color="#ffffff" preserveAspectRatio="xMidYMid meet" height="1945" width="2000" xmlns="http://www.w3.org/2000/svg" xmlns:xlink="http://www.w3.org/1999/xlink"><g id="tight-bounds" transform="matrix(1,0,0,1,0.16570023963555514,0.4000000000000057)"><svg viewBox="0 0 254.6685995207289 247.2" height="247.2" width="254.6685995207289"><g><svg viewBox="0 0 395.52 383.92068823562107" height="247.2" width="254.6685995207289"><g transform="matrix(1,0,0,1,0,276.85804322402015)"><svg viewBox="0 0 395.52 107.06264501160092" height="107.06264501160092" width="395.52"><g id="textblocktransform"><svg viewBox="0 0 395.52 107.06264501160092" height="107.06264501160092" width="395.52" id="textblock"><g><svg viewBox="0 0 395.52 107.06264501160092" height="107.06264501160092" width="395.52"><g transform="matrix(1,0,0,1,0,0)"><svg width="395.52" viewBox="3.9 -35 129.29 35" height="107.06264501160092" data-palette-color="#398378"><path d="M3.9 0L3.9-35 16.2-35Q20.95-35 23.28-32.1 25.6-29.2 25.6-24.3L25.6-24.3Q25.6-20 23.53-17.03 21.45-14.05 15.55-14.05L15.55-14.05 4.85-14.05 4.85 0 3.9 0ZM15.45-15Q24.65-15 24.65-24.3L24.65-24.3Q24.65-28.75 22.63-31.38 20.6-34 16.25-34L16.25-34 4.85-34 4.85-15 15.45-15ZM33.35 0L33.35-33.95 29.05-34.05 29.05-35 34.3-35 34.3 0 33.35 0ZM41.09 0L41.09-35 42.05-35 42.05-1 59.15-1 59.15 0 41.09 0ZM63.09 0L63.09-35 64.04-35 64.04-1 81.14-1 81.14 0 63.09 0ZM105.99 0L101.09-14.05 87.69-14.05 82.74 0 81.79 0 94.04-35 94.74-35 107.04 0 105.99 0ZM94.39-33L88.04-15 100.74-15 94.39-33ZM132.14 0L125.39-14.15 124.14-14.05 112.44-14.05 112.44 0 111.44 0 111.44-35 123.39-35Q128.34-35 130.74-32.1 133.14-29.2 133.14-24.3L133.14-24.3Q133.14-21.25 131.66-18.35 130.19-15.45 126.34-14.35L126.34-14.35 133.19 0 132.14 0ZM123.34-15Q127.89-15 130.01-17.75 132.14-20.5 132.14-24.3L132.14-24.3Q132.14-28.9 129.91-31.45 127.69-34 123.34-34L123.34-34 112.44-34 112.44-15 123.34-15Z" opacity="1" transform="matrix(1,0,0,1,0,0)" fill="#398378" class="wordmark-text-0" data-fill-palette-color="primary" id="text-0"></path></svg></g></svg></g></svg></g></svg></g><g transform="matrix(1,0,0,1,84.60589937174862,0)"><svg viewBox="0 0 226.30820125650274 226.30820125650274" height="226.30820125650274" width="226.30820125650274"><g><svg></svg></g><g id="icon-0"><svg viewBox="0 0 226.30820125650274 226.30820125650274" height="226.30820125650274" width="226.30820125650274"><g><path d="M0 113.154c0-62.493 50.661-113.154 113.154-113.154 62.493 0 113.154 50.661 113.154 113.154 0 62.493-50.661 113.154-113.154 113.154-62.493 0-113.154-50.661-113.154-113.154zM113.154 216.653c57.161 0 103.499-46.338 103.499-103.499 0-57.161-46.338-103.499-103.499-103.499-57.161 0-103.499 46.338-103.499 103.499 0 57.161 46.338 103.499 103.499 103.499z" data-fill-palette-color="tertiary" fill="#398378" stroke="transparent"></path></g><g transform="matrix(1,0,0,1,59.28078944901373,48.61115234872209)"><svg viewBox="0 0 107.74662235847528 129.08589655905857" height="129.08589655905857" width="107.74662235847528"><g><svg xmlns="http://www.w3.org/2000/svg" xmlns:xlink="http://www.w3.org/1999/xlink" version="1.1" x="0" y="0" viewBox="4.869453171541069 1 40.1485574612835 48.1" enable-background="new 0 0 50 50" xml:space="preserve" height="129.08589655905857" width="107.74662235847528" class="icon-dxe-0" data-fill-palette-color="accent" id="dxe-0"><g fill="#398378" data-fill-palette-color="accent"><path d="M38.8 6.1H11.2C8.1 5.9 5.2 8 4.9 11 4.5 14.6 8.1 17.7 11.5 16 13.1 15.1 13.8 13.6 13.5 12.1 13.2 10.7 12 9.5 10.6 9.5 9.3 9.5 8.2 10.4 8 11.4 7.7 13 9.2 14.2 10.4 13.5 10.7 13.3 10.8 13.2 10.8 13.2S10.7 13.3 10.4 13.4C9.3 13.8 8.4 12.6 8.8 11.6 9 11 9.8 10.6 10.5 10.7 11.3 10.8 11.8 11.6 11.9 12.3 12 13.1 11.5 13.9 10.6 14.3 8.8 15.2 6.8 13.4 7 11.2 7.2 9.2 9.2 7.9 11.2 8H38.7C40.7 7.9 42.7 9.2 42.9 11.2 43.1 13.4 41.1 15.2 39.3 14.3 38.4 13.9 37.9 13.1 38 12.3 38.1 10.4 40.6 10.1 41.1 11.6 41.5 12.6 40.6 13.8 39.5 13.4 39.2 13.3 39.1 13.2 39.1 13.2S39.2 13.4 39.5 13.5C40.7 14.2 42.2 13 41.9 11.4 41.7 10.4 40.7 9.5 39.3 9.5S36.7 10.7 36.4 12.1C36.1 13.6 36.8 15.2 38.4 16 41.8 17.8 45.3 14.6 45 11 44.8 8.1 42.1 5.8 38.8 6.1" fill="#398378" data-fill-palette-color="accent"></path><path d="M16.5 4H33.6C34.4 4 35 3.4 35 2.6V2.4C35 1.6 34.4 1 33.6 1H16.5C15.7 1 15.1 1.6 15.1 2.4V2.6C15.1 3.3 15.7 4 16.5 4" fill="#398378" data-fill-palette-color="accent"></path><path d="M18.9 41.2C19.8 41.2 20.5 40.5 20.5 39.6V11.6C20.5 10.7 19.8 10 18.9 10H18.7C17.8 10 17.1 10.7 17.1 11.6V39.6C17.1 40.5 17.8 41.2 18.7 41.2z" fill="#398378" data-fill-palette-color="accent"></path><path d="M25.1 49C26 49 26.7 48.3 26.7 47.4V11.7C26.7 10.8 26 10.1 25.1 10.1H24.9C24 10.1 23.3 10.8 23.3 11.7V47.5C23.3 48.4 24 49.1 24.9 49.1H25.1z" fill="#398378" data-fill-palette-color="accent"></path><path d="M31.3 41.2C32.2 41.2 32.9 40.5 32.9 39.6V11.6C32.9 10.7 32.2 10 31.3 10H31.1C30.2 10 29.5 10.7 29.5 11.6V39.6C29.5 40.5 30.2 41.2 31.1 41.2z" fill="#398378" data-fill-palette-color="accent"></path></g></svg></g></svg></g></svg></g></svg></g><g></g></svg></g><defs></defs></svg><rect width="254.6685995207289" height="247.2" fill="none" stroke="none" visibility="hidden"></rect></g></svg></g></svg>